<svg width="31" height="31" viewBox="0 0 31 31" fill="none" xmlns="http://www.w3.org/2000/svg">
<path d="M10.7307 14.3078H6.55755C6.06073 14.3078 5.63835 14.134 5.29056 13.7862C4.94296 13.4384 4.76893 13.0162 4.76893 12.5192V11.9233C4.76893 10.6067 5.23477 9.48282 6.16637 8.55122C7.09791 7.61994 8.222 7.15411 9.53846 7.15411H10.7307C11.0535 7.15411 11.3329 7.03607 11.569 6.80018C11.8049 6.56417 11.9229 6.28482 11.9229 5.96189V3.57706C11.9229 3.25419 11.8049 2.97459 11.569 2.73857C11.3329 2.50288 11.0536 2.38464 10.7307 2.38464H9.53846C8.24667 2.38464 7.01425 2.63639 5.84044 3.13915C4.66675 3.64225 3.65156 4.3223 2.79448 5.17939C1.93746 6.03608 1.2576 7.05134 0.754573 8.22516C0.251546 9.39885 0 10.6316 0 11.9233V25.0383C0 26.0324 0.347597 26.8765 1.04312 27.5723C1.7387 28.2677 2.58345 28.6154 3.57698 28.6154H10.7311C11.7246 28.6154 12.5691 28.2677 13.2647 27.5723C13.9601 26.8765 14.3079 26.0324 14.3079 25.0383V17.8848C14.3079 16.8909 13.9601 16.0468 13.2643 15.3509C12.569 14.6556 11.7241 14.3078 10.7307 14.3078Z" fill="white"/>
<path d="M29.958 15.3509C29.2626 14.6556 28.4181 14.3078 27.4244 14.3078H23.2513C22.7547 14.3078 22.332 14.134 21.9848 13.7862C21.6368 13.4384 21.4631 13.0162 21.4631 12.5192V11.9233C21.4631 10.6067 21.929 9.48282 22.8601 8.55122C23.7913 7.61994 24.9154 7.15411 26.2325 7.15411H27.4244C27.7474 7.15411 28.0269 7.03607 28.2628 6.80018C28.4985 6.56417 28.617 6.28482 28.617 5.96189V3.57706C28.617 3.25419 28.4986 2.97459 28.2628 2.73857C28.027 2.50288 27.7474 2.38464 27.4244 2.38464H26.2325C24.94 2.38464 23.7078 2.63639 22.5337 3.13915C21.3602 3.64225 20.3453 4.3223 19.4882 5.17939C18.6311 6.03608 17.951 7.05134 17.4481 8.22516C16.9452 9.39885 16.6934 10.6316 16.6934 11.9233V25.0383C16.6934 26.0324 17.0413 26.8765 17.7366 27.5723C18.432 28.2677 19.2766 28.6154 20.2702 28.6154H27.424C28.4177 28.6154 29.2622 28.2677 29.9575 27.5723C30.6533 26.8765 31.0006 26.0324 31.0006 25.0383V17.8848C31.0006 16.8908 30.6533 16.0468 29.958 15.3509Z" fill="white"/>
</svg>
