<svg width="911" height="4" fill="none" xmlns="http://www.w3.org/2000/svg"><path opacity=".7" d="M1.952 3.112c-.363 0-.672-.123-.928-.368a1.302 1.302 0 0 1-.384-.96c0-.405.128-.725.384-.96.256-.245.565-.368.928-.368.363 0 .672.123.928.368.256.235.384.555.384.96 0 .384-.128.704-.384.96a1.293 1.293 0 0 1-.928.368zm10.306 0c-.362 0-.672-.123-.928-.368a1.302 1.302 0 0 1-.384-.96c0-.405.128-.725.384-.96.256-.245.566-.368.928-.368.363 0 .672.123.928.368.256.235.384.555.384.96 0 .384-.128.704-.384.96a1.292 1.292 0 0 1-.928.368zm10.306 0c-.362 0-.672-.123-.927-.368a1.302 1.302 0 0 1-.384-.96c0-.405.128-.725.384-.96.255-.245.565-.368.927-.368.363 0 .672.123.928.368.256.235.384.555.384.96 0 .384-.128.704-.384.96a1.292 1.292 0 0 1-.928.368zm10.307 0c-.363 0-.672-.123-.928-.368a1.302 1.302 0 0 1-.384-.96c0-.405.128-.725.384-.96.256-.245.565-.368.928-.368.362 0 .672.123.928.368.256.235.384.555.384.96 0 .384-.128.704-.384.96a1.293 1.293 0 0 1-.928.368zm10.306 0c-.363 0-.672-.123-.928-.368a1.302 1.302 0 0 1-.384-.96c0-.405.128-.725.384-.96.256-.245.565-.368.928-.368.363 0 .672.123.928.368.256.235.384.555.384.96 0 .384-.128.704-.384.96a1.292 1.292 0 0 1-.928.368zm10.306 0c-.362 0-.672-.123-.928-.368a1.302 1.302 0 0 1-.384-.96c0-.405.128-.725.384-.96.256-.245.566-.368.928-.368.363 0 .672.123.928.368.256.235.384.555.384.96 0 .384-.128.704-.384.96a1.293 1.293 0 0 1-.928.368zm10.306 0c-.362 0-.672-.123-.928-.368a1.302 1.302 0 0 1-.383-.96c0-.405.127-.725.383-.96.257-.245.566-.368.928-.368.363 0 .672.123.928.368.257.235.385.555.385.96 0 .384-.129.704-.385.96a1.292 1.292 0 0 1-.928.368zm10.307 0c-.363 0-.672-.123-.928-.368a1.302 1.302 0 0 1-.384-.96c0-.405.128-.725.384-.96.256-.245.565-.368.928-.368.362 0 .672.123.928.368.256.235.384.555.384.96 0 .384-.128.704-.384.96a1.293 1.293 0 0 1-.928.368zm10.306 0c-.363 0-.672-.123-.928-.368a1.302 1.302 0 0 1-.384-.96c0-.405.128-.725.384-.96.256-.245.565-.368.928-.368.363 0 .672.123.928.368.256.235.384.555.384.96 0 .384-.128.704-.384.96a1.292 1.292 0 0 1-.928.368zm10.306 0c-.362 0-.672-.123-.928-.368a1.302 1.302 0 0 1-.384-.96c0-.405.128-.725.384-.96.256-.245.566-.368.928-.368.363 0 .672.123.928.368.256.235.384.555.384.96 0 .384-.128.704-.384.96a1.292 1.292 0 0 1-.928.368zm10.307 0c-.363 0-.672-.123-.928-.368a1.302 1.302 0 0 1-.384-.96c0-.405.128-.725.384-.96.256-.245.565-.368.928-.368.362 0 .672.123.928.368.256.235.384.555.384.96 0 .384-.128.704-.384.96a1.294 1.294 0 0 1-.928.368zm10.306 0c-.363 0-.672-.123-.928-.368a1.302 1.302 0 0 1-.384-.96c0-.405.128-.725.384-.96.256-.245.565-.368.928-.368.362 0 .672.123.928.368.256.235.384.555.384.96 0 .384-.128.704-.384.96a1.294 1.294 0 0 1-.928.368zm10.306 0c-.363 0-.672-.123-.928-.368a1.302 1.302 0 0 1-.384-.96c0-.405.128-.725.384-.96.256-.245.565-.368.928-.368.363 0 .672.123.928.368.256.235.384.555.384.96 0 .384-.128.704-.384.96a1.292 1.292 0 0 1-.928.368zm10.306 0c-.362 0-.672-.123-.928-.368a1.302 1.302 0 0 1-.384-.96c0-.405.128-.725.384-.96.256-.245.566-.368.928-.368.363 0 .672.123.928.368.256.235.384.555.384.96 0 .384-.128.704-.384.96a1.292 1.292 0 0 1-.928.368zm10.307 0c-.363 0-.672-.123-.928-.368a1.302 1.302 0 0 1-.384-.96c0-.405.128-.725.384-.96.256-.245.565-.368.928-.368.362 0 .672.123.928.368.256.235.384.555.384.96 0 .384-.128.704-.384.96a1.294 1.294 0 0 1-.928.368zm10.306 0c-.363 0-.672-.123-.928-.368a1.302 1.302 0 0 1-.384-.96c0-.405.128-.725.384-.96.256-.245.565-.368.928-.368.362 0 .672.123.928.368.256.235.384.555.384.96 0 .384-.128.704-.384.96a1.294 1.294 0 0 1-.928.368zm10.306 0c-.363 0-.672-.123-.928-.368a1.302 1.302 0 0 1-.384-.96c0-.405.128-.725.384-.96.256-.245.565-.368.928-.368.363 0 .672.123.928.368.256.235.384.555.384.96 0 .384-.128.704-.384.96a1.292 1.292 0 0 1-.928.368zm10.306 0c-.362 0-.672-.123-.928-.368a1.302 1.302 0 0 1-.384-.96c0-.405.128-.725.384-.96.256-.245.566-.368.928-.368.363 0 .672.123.928.368.256.235.384.555.384.96 0 .384-.128.704-.384.96a1.292 1.292 0 0 1-.928.368zm10.306 0c-.362 0-.672-.123-.928-.368a1.302 1.302 0 0 1-.384-.96c0-.405.128-.725.384-.96.256-.245.566-.368.928-.368.363 0 .672.123.928.368.256.235.384.555.384.96 0 .384-.128.704-.384.96a1.292 1.292 0 0 1-.928.368zm10.307 0c-.363 0-.672-.123-.928-.368a1.302 1.302 0 0 1-.384-.96c0-.405.128-.725.384-.96.256-.245.565-.368.928-.368.362 0 .672.123.928.368.256.235.384.555.384.96 0 .384-.128.704-.384.96a1.294 1.294 0 0 1-.928.368zm10.306 0c-.363 0-.672-.123-.928-.368a1.302 1.302 0 0 1-.384-.96c0-.405.128-.725.384-.96.256-.245.565-.368.928-.368.363 0 .672.123.928.368.256.235.384.555.384.96 0 .384-.128.704-.384.96a1.292 1.292 0 0 1-.928.368zm10.306 0c-.362 0-.672-.123-.928-.368a1.302 1.302 0 0 1-.384-.96c0-.405.128-.725.384-.96.256-.245.566-.368.928-.368.363 0 .672.123.928.368.256.235.384.555.384.96 0 .384-.128.704-.384.96a1.292 1.292 0 0 1-.928.368zm10.307 0c-.363 0-.672-.123-.928-.368a1.302 1.302 0 0 1-.384-.96c0-.405.128-.725.384-.96.256-.245.565-.368.928-.368.362 0 .672.123.928.368.256.235.384.555.384.96 0 .384-.128.704-.384.96a1.294 1.294 0 0 1-.928.368zm10.306 0c-.363 0-.672-.123-.928-.368a1.302 1.302 0 0 1-.384-.96c0-.405.128-.725.384-.96.256-.245.565-.368.928-.368.362 0 .672.123.928.368.256.235.384.555.384.96 0 .384-.128.704-.384.96a1.294 1.294 0 0 1-.928.368zm10.306 0c-.363 0-.672-.123-.928-.368a1.302 1.302 0 0 1-.384-.96c0-.405.128-.725.384-.96.256-.245.565-.368.928-.368.363 0 .672.123.928.368.256.235.384.555.384.96 0 .384-.128.704-.384.96a1.292 1.292 0 0 1-.928.368zm10.306 0c-.362 0-.672-.123-.928-.368a1.302 1.302 0 0 1-.384-.96c0-.405.128-.725.384-.96.256-.245.566-.368.928-.368.363 0 .672.123.928.368.256.235.384.555.384.96 0 .384-.128.704-.384.96a1.292 1.292 0 0 1-.928.368zm10.306 0c-.362 0-.672-.123-.928-.368a1.302 1.302 0 0 1-.384-.96c0-.405.128-.725.384-.96.256-.245.566-.368.928-.368.363 0 .672.123.928.368.256.235.384.555.384.96 0 .384-.128.704-.384.96a1.292 1.292 0 0 1-.928.368zm10.307 0c-.363 0-.672-.123-.928-.368a1.302 1.302 0 0 1-.384-.96c0-.405.128-.725.384-.96.256-.245.565-.368.928-.368.362 0 .672.123.928.368.256.235.384.555.384.96 0 .384-.128.704-.384.96a1.294 1.294 0 0 1-.928.368zm10.306 0c-.363 0-.672-.123-.928-.368a1.302 1.302 0 0 1-.384-.96c0-.405.128-.725.384-.96.256-.245.565-.368.928-.368.363 0 .672.123.928.368.256.235.384.555.384.96 0 .384-.128.704-.384.96a1.292 1.292 0 0 1-.928.368zm10.306 0c-.362 0-.672-.123-.928-.368a1.302 1.302 0 0 1-.384-.96c0-.405.128-.725.384-.96.256-.245.566-.368.928-.368.363 0 .672.123.928.368.256.235.384.555.384.96 0 .384-.128.704-.384.96a1.292 1.292 0 0 1-.928.368zm10.307 0c-.363 0-.672-.123-.928-.368a1.302 1.302 0 0 1-.384-.96c0-.405.128-.725.384-.96.256-.245.565-.368.928-.368.362 0 .672.123.928.368.256.235.384.555.384.96 0 .384-.128.704-.384.96a1.294 1.294 0 0 1-.928.368zm10.306 0c-.363 0-.672-.123-.928-.368a1.302 1.302 0 0 1-.384-.96c0-.405.128-.725.384-.96.256-.245.565-.368.928-.368.362 0 .672.123.928.368.256.235.384.555.384.96 0 .384-.128.704-.384.96a1.294 1.294 0 0 1-.928.368zm10.306 0c-.363 0-.672-.123-.928-.368a1.302 1.302 0 0 1-.384-.96c0-.405.128-.725.384-.96.256-.245.565-.368.928-.368.363 0 .672.123.928.368.256.235.384.555.384.96 0 .384-.128.704-.384.96a1.292 1.292 0 0 1-.928.368zm10.306 0c-.362 0-.672-.123-.928-.368a1.302 1.302 0 0 1-.384-.96c0-.405.128-.725.384-.96.256-.245.566-.368.928-.368.363 0 .672.123.928.368.256.235.384.555.384.96 0 .384-.128.704-.384.96a1.292 1.292 0 0 1-.928.368zm10.307 0c-.363 0-.672-.123-.928-.368a1.302 1.302 0 0 1-.384-.96c0-.405.128-.725.384-.96.256-.245.565-.368.928-.368.362 0 .672.123.928.368.256.235.384.555.384.96 0 .384-.128.704-.384.96a1.294 1.294 0 0 1-.928.368zm10.306 0c-.363 0-.672-.123-.928-.368a1.302 1.302 0 0 1-.384-.96c0-.405.128-.725.384-.96.256-.245.565-.368.928-.368.362 0 .672.123.928.368.256.235.384.555.384.96 0 .384-.128.704-.384.96a1.294 1.294 0 0 1-.928.368zm10.306 0c-.363 0-.672-.123-.928-.368a1.302 1.302 0 0 1-.384-.96c0-.405.128-.725.384-.96.256-.245.565-.368.928-.368.363 0 .672.123.928.368.256.235.384.555.384.96 0 .384-.128.704-.384.96a1.292 1.292 0 0 1-.928.368zm10.306 0c-.362 0-.672-.123-.928-.368a1.302 1.302 0 0 1-.384-.96c0-.405.128-.725.384-.96.256-.245.566-.368.928-.368.363 0 .672.123.928.368.256.235.384.555.384.96 0 .384-.128.704-.384.96a1.292 1.292 0 0 1-.928.368zm10.307 0c-.363 0-.672-.123-.928-.368a1.302 1.302 0 0 1-.384-.96c0-.405.128-.725.384-.96.256-.245.565-.368.928-.368.362 0 .672.123.928.368.256.235.384.555.384.96 0 .384-.128.704-.384.96a1.294 1.294 0 0 1-.928.368zm10.306 0c-.363 0-.672-.123-.928-.368a1.302 1.302 0 0 1-.384-.96c0-.405.128-.725.384-.96.256-.245.565-.368.928-.368.362 0 .672.123.928.368.256.235.384.555.384.96 0 .384-.128.704-.384.96a1.294 1.294 0 0 1-.928.368zm10.306 0c-.363 0-.672-.123-.928-.368a1.302 1.302 0 0 1-.384-.96c0-.405.128-.725.384-.96.256-.245.565-.368.928-.368.363 0 .672.123.928.368.256.235.384.555.384.96 0 .384-.128.704-.384.96a1.292 1.292 0 0 1-.928.368zm10.306 0c-.362 0-.672-.123-.928-.368a1.302 1.302 0 0 1-.384-.96c0-.405.128-.725.384-.96.256-.245.566-.368.928-.368.363 0 .672.123.928.368.256.235.384.555.384.96 0 .384-.128.704-.384.96a1.292 1.292 0 0 1-.928.368zm10.307 0c-.363 0-.672-.123-.928-.368a1.302 1.302 0 0 1-.384-.96c0-.405.128-.725.384-.96.256-.245.565-.368.928-.368.362 0 .672.123.928.368.256.235.384.555.384.96 0 .384-.128.704-.384.96a1.294 1.294 0 0 1-.928.368zm10.306 0c-.363 0-.672-.123-.928-.368a1.302 1.302 0 0 1-.384-.96c0-.405.128-.725.384-.96.256-.245.565-.368.928-.368.362 0 .672.123.928.368.256.235.384.555.384.96 0 .384-.128.704-.384.96a1.294 1.294 0 0 1-.928.368zm10.306 0c-.363 0-.672-.123-.928-.368a1.302 1.302 0 0 1-.384-.96c0-.405.128-.725.384-.96.256-.245.565-.368.928-.368.363 0 .672.123.928.368.256.235.384.555.384.96 0 .384-.128.704-.384.96a1.292 1.292 0 0 1-.928.368zm10.306 0c-.362 0-.672-.123-.928-.368a1.302 1.302 0 0 1-.384-.96c0-.405.128-.725.384-.96.256-.245.566-.368.928-.368.363 0 .672.123.928.368.256.235.384.555.384.96 0 .384-.128.704-.384.96a1.292 1.292 0 0 1-.928.368zm10.306 0c-.362 0-.672-.123-.928-.368a1.302 1.302 0 0 1-.384-.96c0-.405.128-.725.384-.96.256-.245.566-.368.928-.368.363 0 .672.123.928.368.256.235.384.555.384.96 0 .384-.128.704-.384.96a1.292 1.292 0 0 1-.928.368zm10.307 0c-.363 0-.672-.123-.928-.368a1.302 1.302 0 0 1-.384-.96c0-.405.128-.725.384-.96.256-.245.565-.368.928-.368.362 0 .672.123.928.368.256.235.384.555.384.96 0 .384-.128.704-.384.96a1.294 1.294 0 0 1-.928.368zm10.306 0c-.363 0-.672-.123-.928-.368a1.302 1.302 0 0 1-.384-.96c0-.405.128-.725.384-.96.256-.245.565-.368.928-.368.363 0 .672.123.928.368.256.235.384.555.384.96 0 .384-.128.704-.384.96a1.292 1.292 0 0 1-.928.368zm10.306 0c-.362 0-.672-.123-.928-.368a1.302 1.302 0 0 1-.384-.96c0-.405.128-.725.384-.96.256-.245.566-.368.928-.368.363 0 .672.123.928.368.256.235.384.555.384.96 0 .384-.128.704-.384.96a1.292 1.292 0 0 1-.928.368zm10.307 0c-.363 0-.672-.123-.928-.368a1.302 1.302 0 0 1-.384-.96c0-.405.128-.725.384-.96.256-.245.565-.368.928-.368.362 0 .672.123.928.368.256.235.384.555.384.96 0 .384-.128.704-.384.96a1.294 1.294 0 0 1-.928.368zm10.306 0c-.363 0-.672-.123-.928-.368a1.302 1.302 0 0 1-.384-.96c0-.405.128-.725.384-.96.256-.245.565-.368.928-.368.362 0 .672.123.928.368.256.235.384.555.384.96 0 .384-.128.704-.384.96a1.294 1.294 0 0 1-.928.368zm10.306 0c-.363 0-.672-.123-.928-.368a1.302 1.302 0 0 1-.384-.96c0-.405.128-.725.384-.96.256-.245.565-.368.928-.368.363 0 .672.123.928.368.256.235.384.555.384.96 0 .384-.128.704-.384.96a1.292 1.292 0 0 1-.928.368zm10.306 0c-.362 0-.672-.123-.928-.368a1.302 1.302 0 0 1-.384-.96c0-.405.128-.725.384-.96.256-.245.566-.368.928-.368.363 0 .672.123.928.368.256.235.384.555.384.96 0 .384-.128.704-.384.96a1.292 1.292 0 0 1-.928.368zm10.306 0c-.362 0-.672-.123-.928-.368a1.302 1.302 0 0 1-.384-.96c0-.405.128-.725.384-.96.256-.245.566-.368.928-.368.363 0 .672.123.928.368.256.235.384.555.384.96 0 .384-.128.704-.384.96a1.292 1.292 0 0 1-.928.368zm10.307 0c-.363 0-.672-.123-.928-.368a1.302 1.302 0 0 1-.384-.96c0-.405.128-.725.384-.96.256-.245.565-.368.928-.368.362 0 .672.123.928.368.256.235.384.555.384.96 0 .384-.128.704-.384.96a1.294 1.294 0 0 1-.928.368zm10.306 0c-.363 0-.672-.123-.928-.368a1.302 1.302 0 0 1-.384-.96c0-.405.128-.725.384-.96.256-.245.565-.368.928-.368.363 0 .672.123.928.368.256.235.384.555.384.96 0 .384-.128.704-.384.96a1.292 1.292 0 0 1-.928.368zm10.306 0c-.362 0-.672-.123-.928-.368a1.302 1.302 0 0 1-.384-.96c0-.405.128-.725.384-.96.256-.245.566-.368.928-.368.363 0 .672.123.928.368.256.235.384.555.384.96 0 .384-.128.704-.384.96a1.292 1.292 0 0 1-.928.368zm10.307 0c-.363 0-.672-.123-.928-.368a1.302 1.302 0 0 1-.384-.96c0-.405.128-.725.384-.96.256-.245.565-.368.928-.368.362 0 .672.123.928.368.256.235.384.555.384.96 0 .384-.128.704-.384.96a1.294 1.294 0 0 1-.928.368zm10.306 0c-.363 0-.672-.123-.928-.368a1.302 1.302 0 0 1-.384-.96c0-.405.128-.725.384-.96.256-.245.565-.368.928-.368.362 0 .672.123.928.368.256.235.384.555.384.96 0 .384-.128.704-.384.96a1.294 1.294 0 0 1-.928.368zm10.306 0c-.363 0-.672-.123-.928-.368a1.302 1.302 0 0 1-.384-.96c0-.405.128-.725.384-.96.256-.245.565-.368.928-.368.363 0 .672.123.928.368.256.235.384.555.384.96 0 .384-.128.704-.384.96a1.292 1.292 0 0 1-.928.368zm10.306 0c-.362 0-.672-.123-.928-.368a1.302 1.302 0 0 1-.384-.96c0-.405.128-.725.384-.96.256-.245.566-.368.928-.368.363 0 .672.123.928.368.256.235.384.555.384.96 0 .384-.128.704-.384.96a1.292 1.292 0 0 1-.928.368zm10.306 0c-.362 0-.672-.123-.928-.368a1.302 1.302 0 0 1-.384-.96c0-.405.128-.725.384-.96.256-.245.566-.368.928-.368.363 0 .672.123.928.368.256.235.384.555.384.96 0 .384-.128.704-.384.96a1.292 1.292 0 0 1-.928.368zm10.307 0c-.363 0-.672-.123-.928-.368a1.302 1.302 0 0 1-.384-.96c0-.405.128-.725.384-.96.256-.245.565-.368.928-.368.362 0 .672.123.928.368.256.235.384.555.384.96 0 .384-.128.704-.384.96a1.294 1.294 0 0 1-.928.368zm10.306 0c-.363 0-.672-.123-.928-.368a1.302 1.302 0 0 1-.384-.96c0-.405.128-.725.384-.96.256-.245.565-.368.928-.368.363 0 .672.123.928.368.256.235.384.555.384.96 0 .384-.128.704-.384.96a1.292 1.292 0 0 1-.928.368zm10.306 0c-.362 0-.672-.123-.928-.368a1.302 1.302 0 0 1-.384-.96c0-.405.128-.725.384-.96.256-.245.566-.368.928-.368.363 0 .672.123.928.368.256.235.384.555.384.96 0 .384-.128.704-.384.96a1.292 1.292 0 0 1-.928.368zm10.307 0c-.363 0-.672-.123-.928-.368a1.302 1.302 0 0 1-.384-.96c0-.405.128-.725.384-.96.256-.245.565-.368.928-.368.362 0 .672.123.928.368.256.235.384.555.384.96 0 .384-.128.704-.384.96a1.294 1.294 0 0 1-.928.368zm10.306 0c-.363 0-.672-.123-.928-.368a1.302 1.302 0 0 1-.384-.96c0-.405.128-.725.384-.96.256-.245.565-.368.928-.368.362 0 .672.123.928.368.256.235.384.555.384.96 0 .384-.128.704-.384.96a1.294 1.294 0 0 1-.928.368zm10.306 0c-.363 0-.672-.123-.928-.368a1.302 1.302 0 0 1-.384-.96c0-.405.128-.725.384-.96.256-.245.565-.368.928-.368.363 0 .672.123.928.368.256.235.384.555.384.96 0 .384-.128.704-.384.96a1.292 1.292 0 0 1-.928.368zm10.306 0c-.362 0-.672-.123-.928-.368a1.302 1.302 0 0 1-.384-.96c0-.405.128-.725.384-.96.256-.245.566-.368.928-.368.363 0 .672.123.928.368.256.235.384.555.384.96 0 .384-.128.704-.384.96a1.292 1.292 0 0 1-.928.368zm10.307 0c-.363 0-.672-.123-.928-.368a1.302 1.302 0 0 1-.384-.96c0-.405.128-.725.384-.96.256-.245.565-.368.928-.368.362 0 .672.123.928.368.256.235.384.555.384.96 0 .384-.128.704-.384.96a1.294 1.294 0 0 1-.928.368zm10.306 0c-.363 0-.672-.123-.928-.368a1.302 1.302 0 0 1-.384-.96c0-.405.128-.725.384-.96.256-.245.565-.368.928-.368.362 0 .672.123.928.368.256.235.384.555.384.96 0 .384-.128.704-.384.96a1.294 1.294 0 0 1-.928.368zm10.306 0c-.363 0-.672-.123-.928-.368a1.302 1.302 0 0 1-.384-.96c0-.405.128-.725.384-.96.256-.245.565-.368.928-.368.363 0 .672.123.928.368.256.235.384.555.384.96 0 .384-.128.704-.384.96a1.292 1.292 0 0 1-.928.368zm10.306 0c-.362 0-.672-.123-.928-.368a1.302 1.302 0 0 1-.384-.96c0-.405.128-.725.384-.96.256-.245.566-.368.928-.368.363 0 .672.123.928.368.256.235.384.555.384.96 0 .384-.128.704-.384.96a1.292 1.292 0 0 1-.928.368zm10.307 0c-.363 0-.672-.123-.928-.368a1.302 1.302 0 0 1-.384-.96c0-.405.128-.725.384-.96.256-.245.565-.368.928-.368.362 0 .672.123.928.368.256.235.384.555.384.96 0 .384-.128.704-.384.96a1.294 1.294 0 0 1-.928.368zm10.306 0c-.363 0-.672-.123-.928-.368a1.302 1.302 0 0 1-.384-.96c0-.405.128-.725.384-.96.256-.245.565-.368.928-.368.362 0 .672.123.928.368.256.235.384.555.384.96 0 .384-.128.704-.384.96a1.294 1.294 0 0 1-.928.368zm10.306 0c-.363 0-.672-.123-.928-.368a1.302 1.302 0 0 1-.384-.96c0-.405.128-.725.384-.96.256-.245.565-.368.928-.368.363 0 .672.123.928.368.256.235.384.555.384.96 0 .384-.128.704-.384.96a1.292 1.292 0 0 1-.928.368zm10.306 0c-.362 0-.672-.123-.928-.368a1.302 1.302 0 0 1-.384-.96c0-.405.128-.725.384-.96.256-.245.566-.368.928-.368.363 0 .672.123.928.368.256.235.384.555.384.96 0 .384-.128.704-.384.96a1.292 1.292 0 0 1-.928.368zm10.307 0c-.363 0-.672-.123-.928-.368a1.302 1.302 0 0 1-.384-.96c0-.405.128-.725.384-.96.256-.245.565-.368.928-.368.362 0 .672.123.928.368.256.235.384.555.384.96 0 .384-.128.704-.384.96a1.294 1.294 0 0 1-.928.368zm10.306 0c-.363 0-.672-.123-.928-.368a1.302 1.302 0 0 1-.384-.96c0-.405.128-.725.384-.96.256-.245.565-.368.928-.368.362 0 .672.123.928.368.256.235.384.555.384.96 0 .384-.128.704-.384.96a1.294 1.294 0 0 1-.928.368zm10.306 0c-.363 0-.672-.123-.928-.368a1.302 1.302 0 0 1-.384-.96c0-.405.128-.725.384-.96.256-.245.565-.368.928-.368.363 0 .672.123.928.368.256.235.384.555.384.96 0 .384-.128.704-.384.96a1.292 1.292 0 0 1-.928.368zm10.306 0c-.362 0-.672-.123-.928-.368a1.302 1.302 0 0 1-.384-.96c0-.405.128-.725.384-.96.256-.245.566-.368.928-.368.363 0 .672.123.928.368.256.235.384.555.384.96 0 .384-.128.704-.384.96a1.292 1.292 0 0 1-.928.368zm10.306 0c-.362 0-.672-.123-.928-.368a1.302 1.302 0 0 1-.384-.96c0-.405.128-.725.384-.96.256-.245.566-.368.928-.368.363 0 .672.123.928.368.256.235.384.555.384.96 0 .384-.128.704-.384.96a1.292 1.292 0 0 1-.928.368zm10.307 0c-.363 0-.672-.123-.928-.368a1.302 1.302 0 0 1-.384-.96c0-.405.128-.725.384-.96.256-.245.565-.368.928-.368.362 0 .672.123.928.368.256.235.384.555.384.96 0 .384-.128.704-.384.96a1.294 1.294 0 0 1-.928.368zm10.306 0c-.363 0-.672-.123-.928-.368a1.302 1.302 0 0 1-.384-.96c0-.405.128-.725.384-.96.256-.245.565-.368.928-.368.363 0 .672.123.928.368.256.235.384.555.384.96 0 .384-.128.704-.384.96a1.292 1.292 0 0 1-.928.368zm10.306 0c-.362 0-.672-.123-.928-.368a1.302 1.302 0 0 1-.384-.96c0-.405.128-.725.384-.96.256-.245.566-.368.928-.368.363 0 .672.123.928.368.256.235.384.555.384.96 0 .384-.128.704-.384.96a1.292 1.292 0 0 1-.928.368zm10.307 0c-.363 0-.672-.123-.928-.368a1.302 1.302 0 0 1-.384-.96c0-.405.128-.725.384-.96.256-.245.565-.368.928-.368.362 0 .672.123.928.368.256.235.384.555.384.96 0 .384-.128.704-.384.96a1.294 1.294 0 0 1-.928.368zm10.306 0c-.363 0-.672-.123-.928-.368a1.302 1.302 0 0 1-.384-.96c0-.405.128-.725.384-.96.256-.245.565-.368.928-.368.362 0 .672.123.928.368.256.235.384.555.384.96 0 .384-.128.704-.384.96a1.294 1.294 0 0 1-.928.368zm10.306 0c-.363 0-.672-.123-.928-.368a1.302 1.302 0 0 1-.384-.96c0-.405.128-.725.384-.96.256-.245.565-.368.928-.368.363 0 .672.123.928.368.256.235.384.555.384.96 0 .384-.128.704-.384.96a1.292 1.292 0 0 1-.928.368z" fill="#9C9B9B" fill-opacity=".5"/></svg>